<svg width="53" height="28" viewBox="0 0 53 28" fill="none" xmlns="http://www.w3.org/2000/svg">
<rect width="53" height="28" rx="2" fill="white"/>
<path d="M17.392 23.384C13.984 23.384 11.464 20.912 10.576 17.384H8.344V15.56H10.288L10.24 14.504L10.264 13.688H8.344V11.864H10.528C11.344 8.192 13.888 5.576 17.392 5.576C20.512 5.576 22.816 7.856 23.56 11.12L20.944 11.288C20.464 9.296 19.096 7.952 17.368 7.952C15.16 7.952 13.744 9.584 13.144 11.864H17.488L17.224 13.688H12.856L12.832 14.504C12.832 14.864 12.856 15.224 12.88 15.56H17.008L16.744 17.384H13.216C13.864 19.52 15.28 21.008 17.368 21.008C19.216 21.008 20.608 19.496 21.016 17.336L23.68 17.48C23.032 20.96 20.728 23.384 17.392 23.384ZM37.9439 23.384C34.5359 23.384 32.0159 20.912 31.1279 17.384H28.8959V15.56H30.8399L30.7919 14.504L30.8159 13.688H28.8959V11.864H31.0799C31.8959 8.192 34.4399 5.576 37.9439 5.576C41.0639 5.576 43.3679 7.856 44.1119 11.12L41.4959 11.288C41.0159 9.296 39.6479 7.952 37.9199 7.952C35.7119 7.952 34.2959 9.584 33.6959 11.864H38.0399L37.7759 13.688H33.4079L33.3839 14.504C33.3839 14.864 33.4079 15.224 33.4319 15.56H37.5599L37.2959 17.384H33.7679C34.4159 19.52 35.8319 21.008 37.9199 21.008C39.7679 21.008 41.1599 19.496 41.5679 17.336L44.2319 17.48C43.5839 20.96 41.2799 23.384 37.9439 23.384Z" fill="#272727"/>
</svg>
